####
# Object circle.obj
####
v 0.000000 0.000000 0.000000
v 1.000000 0.000000 0.000000
v 0.9807852506637573 0.19509032368659973 0.000000
v 0.9238795042037964 0.3826834261417389 0.000000
v 0.8314695954322815 0.5555702447891235 0.000000
v 0.7071067690849304 0.7071067690849304 0.000000
v 0.5555702447891235 0.8314695954322815 0.000000
v 0.3826834261417389 0.9238795042037964 0.000000
v 0.19509032368659973 0.9807852506637573 0.000000
v 6.123234262925839e-17 1.000000 0.000000
v -0.19509032368659973 0.9807852506637573 0.000000
v -0.3826834261417389 0.9238795042037964 0.000000
v -0.5555702447891235 0.8314695954322815 0.000000
v -0.7071067690849304 0.7071067690849304 0.000000
v -0.8314695954322815 0.5555702447891235 0.000000
v -0.9238795042037964 0.3826834261417389 0.000000
v -0.9807852506637573 0.19509032368659973 0.000000
v -1 1.2246468525851679e-16 0.000000
v -0.9807852506637573 -0.19509032368659973 0.000000
v -0.9238795042037964 -0.3826834261417389 0.000000
v -0.8314695954322815 -0.5555702447891235 0.000000
v -0.7071067690849304 -0.7071067690849304 0.000000
v -0.5555702447891235 -0.8314695954322815 0.000000
v -0.3826834261417389 -0.9238795042037964 0.000000
v -0.19509032368659973 -0.9807852506637573 0.000000
v -1.8369701465288538e-16 -1 0.000000
v 0.19509032368659973 -0.9807852506637573 0.000000
v 0.3826834261417389 -0.9238795042037964 0.000000
v 0.5555702447891235 -0.8314695954322815 0.000000
v 0.7071067690849304 -0.7071067690849304 0.000000
v 0.8314695954322815 -0.5555702447891235 0.000000
v 0.9238795042037964 -0.3826834261417389 0.000000
v 0.9807852506637573 -0.19509032368659973 0.000000
v 1.000000 -2.4492937051703357e-16 0.000000
vt 0.5 0.5
vt 1.000000 0.5
vt 0.9903926253318787 0.5975451469421387
vt 0.9619397521018982 0.6913416981697083
vt 0.9157348275184631 0.7777851223945618
vt 0.8535534143447876 0.8535534143447876
vt 0.7777851223945618 0.9157348275184631
vt 0.6913416981697083 0.9619397521018982
vt 0.5975451469421387 0.9903926253318787
vt 0.5 1.000000
vt 0.40245485305786133 0.9903926253318787
vt 0.30865827202796936 0.9619397521018982
vt 0.22221487760543823 0.9157348275184631
vt 0.1464466154575348 0.8535534143447876
vt 0.08426519483327866 0.7777851223945618
vt 0.03806023299694061 0.6913416981697083
vt 0.009607359766960144 0.5975451469421387
vt 0.000000 0.5
vt 0.009607359766960144 0.40245485305786133
vt 0.03806023299694061 0.30865827202796936
vt 0.08426519483327866 0.22221487760543823
vt 0.1464466154575348 0.1464466154575348
vt 0.22221487760543823 0.08426519483327866
vt 0.30865827202796936 0.03806023299694061
vt 0.40245485305786133 0.009607359766960144
vt 0.5 0.000000
vt 0.5975451469421387 0.009607359766960144
vt 0.6913416981697083 0.03806023299694061
vt 0.7777851223945618 0.08426519483327866
vt 0.8535534143447876 0.1464466154575348
vt 0.9157348275184631 0.22221487760543823
vt 0.9619397521018982 0.30865827202796936
vt 0.9903926253318787 0.40245485305786133
vt 1.000000 0.5
vn 0.000000 0.000000 1.000000
vn 0.000000 0.000000 1.000000
vn 0.000000 0.000000 1.000000
vn 0.000000 0.000000 1.000000
vn 0.000000 0.000000 1.000000
vn 0.000000 0.000000 1.000000
vn 0.000000 0.000000 1.000000
vn 0.000000 0.000000 1.000000
vn 0.000000 0.000000 1.000000
vn 0.000000 0.000000 1.000000
vn 0.000000 0.000000 1.000000
vn 0.000000 0.000000 1.000000
vn 0.000000 0.000000 1.000000
vn 0.000000 0.000000 1.000000
vn 0.000000 0.000000 1.000000
vn 0.000000 0.000000 1.000000
vn 0.000000 0.000000 1.000000
vn 0.000000 0.000000 1.000000
vn 0.000000 0.000000 1.000000
vn 0.000000 0.000000 1.000000
vn 0.000000 0.000000 1.000000
vn 0.000000 0.000000 1.000000
vn 0.000000 0.000000 1.000000
vn 0.000000 0.000000 1.000000
vn 0.000000 0.000000 1.000000
vn 0.000000 0.000000 1.000000
vn 0.000000 0.000000 1.000000
vn 0.000000 0.000000 1.000000
vn 0.000000 0.000000 1.000000
vn 0.000000 0.000000 1.000000
vn 0.000000 0.000000 1.000000
vn 0.000000 0.000000 1.000000
vn 0.000000 0.000000 1.000000
vn 0.000000 0.000000 1.000000

f 2//2 3//3 1//1
f 3//3 4//4 1//1
f 4//4 5//5 1//1
f 5//5 6//6 1//1
f 6//6 7//7 1//1
f 7//7 8//8 1//1
f 8//8 9//9 1//1
f 9//9 10//10 1//1
f 10//10 11//11 1//1
f 11//11 12//12 1//1
f 12//12 13//13 1//1
f 13//13 14//14 1//1
f 14//14 15//15 1//1
f 15//15 16//16 1//1
f 16//16 17//17 1//1
f 17//17 18//18 1//1
f 18//18 19//19 1//1
f 19//19 20//20 1//1
f 20//20 21//21 1//1
f 21//21 22//22 1//1
f 22//22 23//23 1//1
f 23//23 24//24 1//1
f 24//24 25//25 1//1
f 25//25 26//26 1//1
f 26//26 27//27 1//1
f 27//27 28//28 1//1
f 28//28 29//29 1//1
f 29//29 30//30 1//1
f 30//30 31//31 1//1
f 31//31 32//32 1//1
f 32//32 33//33 1//1
f 33//33 34//34 1//1
